<?xml version="1.0" encoding="UTF-8" standalone="no"?>
<svg
   xmlns:dc="http://purl.org/dc/elements/1.1/"
   xmlns:cc="http://creativecommons.org/ns#"
   xmlns:rdf="http://www.w3.org/1999/02/22-rdf-syntax-ns#"
   xmlns:svg="http://www.w3.org/2000/svg"
   xmlns="http://www.w3.org/2000/svg"
   viewBox="0 0 509.33334 489.33334"
   height="489.33334"
   width="509.33334"
   xml:space="preserve"
   id="svg2"
   version="1.1"><metadata
     id="metadata8"><rdf:RDF><cc:Work
         rdf:about=""><dc:format>image/svg+xml</dc:format><dc:type
           rdf:resource="http://purl.org/dc/dcmitype/StillImage" /></cc:Work></rdf:RDF></metadata><defs
     id="defs6"><clipPath
       id="clipPath44"
       clipPathUnits="userSpaceOnUse"><path
         id="path42"
         d="M 0,367 H 382 V 0 H 0 Z" /></clipPath></defs><g
     transform="matrix(1.3333333,0,0,-1.3333333,0,489.33333)"
     id="g10"><path
       id="path12"
       style="fill:#ffffff;fill-opacity:1;fill-rule:nonzero;stroke:none"
       d="M 0,0 H 382 V 367 H 0 Z" /><g
       transform="translate(142.9214,56.2715)"
       id="g14"><path
         id="path16"
         style="fill:#804b2a;fill-opacity:1;fill-rule:nonzero;stroke:none"
         d="M 0,0 -77.913,42.386 -77.6,211.525 0.313,169.14 Z" /></g><g
       transform="translate(143.2349,225.4111)"
       id="g18"><path
         id="path20"
         style="fill:#906447;fill-opacity:1;fill-rule:nonzero;stroke:none"
         d="M 0,0 -77.913,42.385 95.527,66.761 173.44,24.376 Z" /></g><g
       transform="translate(316.6748,249.7871)"
       id="g22"><path
         id="path24"
         style="fill:#bf713e;fill-opacity:1;fill-rule:nonzero;stroke:none"
         d="m 0,0 -0.313,-169.141 -173.44,-24.375 0.313,169.14 z" /></g><g
       transform="translate(139.7686,180.6494)"
       id="g26"><path
         id="path28"
         style="fill:#684834;fill-opacity:1;fill-rule:nonzero;stroke:none"
         d="m 0,0 0.107,58.488 -83.549,45.451 -0.194,-61.625 z" /></g><g
       transform="translate(139.876,239.1377)"
       id="g30"><path
         id="path32"
         style="fill:#906447;fill-opacity:1;fill-rule:nonzero;stroke:none"
         d="m 0,0 -83.549,45.451 185.987,26.14 83.551,-45.452 z" /></g><g
       transform="translate(325.709,204.3071)"
       id="g34"><path
         id="path36"
         style="fill:#804b2a;fill-opacity:1;fill-rule:nonzero;stroke:none"
         d="M 0,0 0.156,60.97 -185.833,34.831 -185.94,-23.658 Z" /></g><g
       id="g38"><g
         clip-path="url(#clipPath44)"
         id="g40"><g
           transform="translate(229.6758,238.0923)"
           id="g46"><path
             id="path48"
             style="fill:#684834;fill-opacity:1;fill-rule:nonzero;stroke:none"
             d="m 0,0 c -20.895,-2.936 -37.87,-23.519 -38.068,-46.055 l -0.014,-0.003 -0.059,-31.958 -10.562,-1.484 c -2.319,-0.327 -4.226,-2.64 -4.231,-5.153 l -0.118,-63.81 c -0.004,-2.505 1.894,-4.291 4.214,-3.966 l 97.142,13.654 c 2.321,0.325 4.227,2.646 4.231,5.15 l 0.119,63.812 c 0.005,2.512 -1.893,4.291 -4.215,3.964 l -10.566,-1.485 0.059,31.96 -0.006,-10e-4 C 37.811,-12.883 20.896,2.937 0,0 m -23.284,-44.092 c 0.116,13.733 10.551,26.35 23.255,28.135 12.705,1.786 23.101,-7.904 23.17,-21.611 l 0.014,0.117 -0.059,-31.959 -46.46,-6.53 0.058,31.959 0.022,-0.111 m 15.117,-77.692 5.137,16.767 c -3.252,0.802 -5.579,3.794 -5.573,7.742 0.01,5.024 3.788,9.623 8.442,10.276 4.661,0.657 8.425,-2.883 8.415,-7.907 -0.007,-3.948 -2.356,-7.597 -5.605,-9.312 l 5.079,-15.331 -15.895,-2.235" /></g></g></g></g></svg>